<svg width="24" height="29" viewBox="0 0 24 29" fill="none" xmlns="http://www.w3.org/2000/svg">
<path d="M12.8039 18.8C6.65397 18.8 3.14616 14.2955 3 6.80005H6.08057C6.18176 12.3015 8.45284 14.6318 10.2517 15.1123V6.80005H13.1524V11.5447C14.9288 11.3405 16.7951 9.17843 17.4247 6.80005H20.3254C20.0882 8.03354 19.6152 9.20147 18.9362 10.2308C18.2572 11.26 17.3867 12.1285 16.3791 12.782C17.5038 13.379 18.4972 14.2241 19.2937 15.2615C20.0902 16.2988 20.6718 17.5049 21 18.8H17.807C17.5124 17.6751 16.9135 16.6681 16.0855 15.9053C15.2575 15.1424 14.2372 14.6577 13.1524 14.5117V18.8H12.8039Z" fill="#C2C6D7"/>
</svg>
